<mxfile host="app.diagrams.net" agent="Mozilla/5.0 (Windows NT 10.0; Win64; x64) AppleWebKit/537.36 (KHTML, like Gecko) Chrome/129.0.0.0 Safari/537.36 Edg/129.0.0.0" version="24.7.16">
  <diagram name="Page-1" id="zeFmYO3uBabSmv73TUK1">
    <mxGraphModel dx="3287" dy="713" grid="1" gridSize="10" guides="1" tooltips="1" connect="1" arrows="1" fold="1" page="1" pageScale="1" pageWidth="850" pageHeight="1100" math="0" shadow="0">
      <root>
        <mxCell id="0" />
        <mxCell id="1" parent="0" />
        <mxCell id="2MBzyR10_KUpDIZZmnl0-3" style="edgeStyle=orthogonalEdgeStyle;rounded=0;orthogonalLoop=1;jettySize=auto;html=1;exitX=0;exitY=0;exitDx=0;exitDy=0;entryX=0.445;entryY=0.94;entryDx=0;entryDy=0;entryPerimeter=0;" parent="1" source="SFxOARt2_e4KMZJVJRQL-1" target="SFxOARt2_e4KMZJVJRQL-2" edge="1">
          <mxGeometry relative="1" as="geometry">
            <mxPoint x="60" y="150" as="targetPoint" />
          </mxGeometry>
        </mxCell>
        <mxCell id="86mHC5baKhJhIRdEhU6H-27" style="edgeStyle=orthogonalEdgeStyle;rounded=0;orthogonalLoop=1;jettySize=auto;html=1;exitX=1;exitY=0;exitDx=0;exitDy=0;entryX=0;entryY=0.5;entryDx=0;entryDy=0;" edge="1" parent="1" source="SFxOARt2_e4KMZJVJRQL-1" target="86mHC5baKhJhIRdEhU6H-14">
          <mxGeometry relative="1" as="geometry">
            <Array as="points">
              <mxPoint x="250" y="190" />
              <mxPoint x="250" y="195" />
            </Array>
          </mxGeometry>
        </mxCell>
        <mxCell id="SFxOARt2_e4KMZJVJRQL-1" value="Cliente" style="rounded=0;whiteSpace=wrap;html=1;" parent="1" vertex="1">
          <mxGeometry x="110" y="190" width="120" height="60" as="geometry" />
        </mxCell>
        <mxCell id="SFxOARt2_e4KMZJVJRQL-2" value="Nombre_cliente" style="ellipse;whiteSpace=wrap;html=1;" parent="1" vertex="1">
          <mxGeometry x="-10" y="90" width="110" height="50" as="geometry" />
        </mxCell>
        <mxCell id="2MBzyR10_KUpDIZZmnl0-19" style="edgeStyle=orthogonalEdgeStyle;rounded=0;orthogonalLoop=1;jettySize=auto;html=1;exitX=0;exitY=0.25;exitDx=0;exitDy=0;entryX=0.5;entryY=1;entryDx=0;entryDy=0;" parent="1" source="SFxOARt2_e4KMZJVJRQL-3" target="2MBzyR10_KUpDIZZmnl0-14" edge="1">
          <mxGeometry relative="1" as="geometry" />
        </mxCell>
        <mxCell id="2MBzyR10_KUpDIZZmnl0-35" style="edgeStyle=orthogonalEdgeStyle;rounded=0;orthogonalLoop=1;jettySize=auto;html=1;exitX=0;exitY=0.75;exitDx=0;exitDy=0;entryX=0.5;entryY=0;entryDx=0;entryDy=0;" parent="1" source="SFxOARt2_e4KMZJVJRQL-3" target="2MBzyR10_KUpDIZZmnl0-34" edge="1">
          <mxGeometry relative="1" as="geometry" />
        </mxCell>
        <mxCell id="SFxOARt2_e4KMZJVJRQL-3" value="Producto" style="rounded=0;whiteSpace=wrap;html=1;" parent="1" vertex="1">
          <mxGeometry x="-470" y="200" width="120" height="60" as="geometry" />
        </mxCell>
        <mxCell id="2MBzyR10_KUpDIZZmnl0-1" value="Apellido_cliente" style="ellipse;whiteSpace=wrap;html=1;" parent="1" vertex="1">
          <mxGeometry x="100" y="80" width="110" height="50" as="geometry" />
        </mxCell>
        <mxCell id="2MBzyR10_KUpDIZZmnl0-6" value="Estado_cliente" style="ellipse;whiteSpace=wrap;html=1;" parent="1" vertex="1">
          <mxGeometry x="240" y="100" width="110" height="50" as="geometry" />
        </mxCell>
        <mxCell id="2MBzyR10_KUpDIZZmnl0-7" style="edgeStyle=orthogonalEdgeStyle;rounded=0;orthogonalLoop=1;jettySize=auto;html=1;exitX=0.709;exitY=-0.01;exitDx=0;exitDy=0;entryX=0.045;entryY=0.72;entryDx=0;entryDy=0;entryPerimeter=0;exitPerimeter=0;" parent="1" source="SFxOARt2_e4KMZJVJRQL-1" edge="1">
          <mxGeometry relative="1" as="geometry">
            <mxPoint x="195" y="183.9999999999999" as="sourcePoint" />
            <mxPoint x="239.94999999999982" y="130" as="targetPoint" />
            <Array as="points">
              <mxPoint x="195" y="164" />
              <mxPoint x="240" y="164" />
            </Array>
          </mxGeometry>
        </mxCell>
        <mxCell id="2MBzyR10_KUpDIZZmnl0-8" style="edgeStyle=orthogonalEdgeStyle;rounded=0;orthogonalLoop=1;jettySize=auto;html=1;exitX=0.5;exitY=0;exitDx=0;exitDy=0;entryX=0.586;entryY=1.067;entryDx=0;entryDy=0;entryPerimeter=0;" parent="1" source="SFxOARt2_e4KMZJVJRQL-1" target="2MBzyR10_KUpDIZZmnl0-1" edge="1">
          <mxGeometry relative="1" as="geometry" />
        </mxCell>
        <mxCell id="2MBzyR10_KUpDIZZmnl0-9" value="Id_Cliente" style="ellipse;whiteSpace=wrap;html=1;" parent="1" vertex="1">
          <mxGeometry x="-80" y="170" width="120" height="50" as="geometry" />
        </mxCell>
        <mxCell id="2MBzyR10_KUpDIZZmnl0-10" style="edgeStyle=orthogonalEdgeStyle;rounded=0;orthogonalLoop=1;jettySize=auto;html=1;exitX=0;exitY=0.25;exitDx=0;exitDy=0;entryX=0.983;entryY=0.651;entryDx=0;entryDy=0;entryPerimeter=0;" parent="1" source="SFxOARt2_e4KMZJVJRQL-1" target="2MBzyR10_KUpDIZZmnl0-9" edge="1">
          <mxGeometry relative="1" as="geometry" />
        </mxCell>
        <mxCell id="2MBzyR10_KUpDIZZmnl0-11" value="&lt;h1&gt;&lt;font face=&quot;Comic Sans MS&quot; style=&quot;font-size: 24px;&quot;&gt;Modelo ER Produccion&amp;nbsp;&lt;/font&gt;&lt;/h1&gt;" style="text;strokeColor=none;align=center;fillColor=none;html=1;verticalAlign=middle;whiteSpace=wrap;rounded=0;" parent="1" vertex="1">
          <mxGeometry x="-370" y="20" width="300" height="30" as="geometry" />
        </mxCell>
        <mxCell id="2MBzyR10_KUpDIZZmnl0-12" value="Id_producto" style="ellipse;whiteSpace=wrap;html=1;" parent="1" vertex="1">
          <mxGeometry x="-320" y="80" width="110" height="60" as="geometry" />
        </mxCell>
        <mxCell id="2MBzyR10_KUpDIZZmnl0-13" value="Nombre_producto" style="ellipse;whiteSpace=wrap;html=1;" parent="1" vertex="1">
          <mxGeometry x="-450" y="70" width="110" height="65" as="geometry" />
        </mxCell>
        <mxCell id="2MBzyR10_KUpDIZZmnl0-14" value="Tipo_Categoria" style="ellipse;whiteSpace=wrap;html=1;" parent="1" vertex="1">
          <mxGeometry x="-590" y="75" width="120" height="80" as="geometry" />
        </mxCell>
        <mxCell id="2MBzyR10_KUpDIZZmnl0-15" style="edgeStyle=orthogonalEdgeStyle;rounded=0;orthogonalLoop=1;jettySize=auto;html=1;exitX=1;exitY=0.25;exitDx=0;exitDy=0;entryX=0.417;entryY=1.05;entryDx=0;entryDy=0;entryPerimeter=0;" parent="1" source="SFxOARt2_e4KMZJVJRQL-3" target="2MBzyR10_KUpDIZZmnl0-12" edge="1">
          <mxGeometry relative="1" as="geometry" />
        </mxCell>
        <mxCell id="2MBzyR10_KUpDIZZmnl0-16" style="edgeStyle=orthogonalEdgeStyle;rounded=0;orthogonalLoop=1;jettySize=auto;html=1;exitX=0.5;exitY=0;exitDx=0;exitDy=0;entryX=0.583;entryY=0.985;entryDx=0;entryDy=0;entryPerimeter=0;" parent="1" source="SFxOARt2_e4KMZJVJRQL-3" target="2MBzyR10_KUpDIZZmnl0-13" edge="1">
          <mxGeometry relative="1" as="geometry">
            <Array as="points">
              <mxPoint x="-386" y="180" />
            </Array>
          </mxGeometry>
        </mxCell>
        <mxCell id="2MBzyR10_KUpDIZZmnl0-31" style="edgeStyle=orthogonalEdgeStyle;rounded=0;orthogonalLoop=1;jettySize=auto;html=1;exitX=0;exitY=0.75;exitDx=0;exitDy=0;entryX=1;entryY=0.5;entryDx=0;entryDy=0;" parent="1" source="2MBzyR10_KUpDIZZmnl0-20" target="2MBzyR10_KUpDIZZmnl0-21" edge="1">
          <mxGeometry relative="1" as="geometry">
            <Array as="points">
              <mxPoint x="-800" y="180" />
            </Array>
          </mxGeometry>
        </mxCell>
        <mxCell id="2MBzyR10_KUpDIZZmnl0-32" style="edgeStyle=orthogonalEdgeStyle;rounded=0;orthogonalLoop=1;jettySize=auto;html=1;exitX=0;exitY=0.25;exitDx=0;exitDy=0;entryX=1;entryY=1;entryDx=0;entryDy=0;" parent="1" source="2MBzyR10_KUpDIZZmnl0-20" target="2MBzyR10_KUpDIZZmnl0-22" edge="1">
          <mxGeometry relative="1" as="geometry" />
        </mxCell>
        <mxCell id="2MBzyR10_KUpDIZZmnl0-20" value="Categoria" style="rounded=0;whiteSpace=wrap;html=1;" parent="1" vertex="1">
          <mxGeometry x="-800" y="120" width="120" height="60" as="geometry" />
        </mxCell>
        <mxCell id="2MBzyR10_KUpDIZZmnl0-21" value="Id_Categoria" style="ellipse;whiteSpace=wrap;html=1;" parent="1" vertex="1">
          <mxGeometry x="-950" y="155" width="120" height="50" as="geometry" />
        </mxCell>
        <mxCell id="2MBzyR10_KUpDIZZmnl0-22" value="Tipo_&lt;span style=&quot;background-color: initial;&quot;&gt;Categoria&lt;/span&gt;" style="ellipse;whiteSpace=wrap;html=1;" parent="1" vertex="1">
          <mxGeometry x="-950" y="80" width="120" height="50" as="geometry" />
        </mxCell>
        <mxCell id="2MBzyR10_KUpDIZZmnl0-26" value="Id_Tamano" style="ellipse;whiteSpace=wrap;html=1;" parent="1" vertex="1">
          <mxGeometry x="-950" y="240" width="120" height="50" as="geometry" />
        </mxCell>
        <mxCell id="2MBzyR10_KUpDIZZmnl0-29" style="edgeStyle=orthogonalEdgeStyle;rounded=0;orthogonalLoop=1;jettySize=auto;html=1;exitX=0;exitY=0.25;exitDx=0;exitDy=0;" parent="1" source="2MBzyR10_KUpDIZZmnl0-27" target="2MBzyR10_KUpDIZZmnl0-26" edge="1">
          <mxGeometry relative="1" as="geometry" />
        </mxCell>
        <mxCell id="2MBzyR10_KUpDIZZmnl0-27" value="Tamano" style="rounded=0;whiteSpace=wrap;html=1;" parent="1" vertex="1">
          <mxGeometry x="-790" y="280" width="120" height="60" as="geometry" />
        </mxCell>
        <mxCell id="2MBzyR10_KUpDIZZmnl0-28" value="Nom_Tamano" style="ellipse;whiteSpace=wrap;html=1;" parent="1" vertex="1">
          <mxGeometry x="-950" y="320" width="120" height="50" as="geometry" />
        </mxCell>
        <mxCell id="2MBzyR10_KUpDIZZmnl0-30" style="edgeStyle=orthogonalEdgeStyle;rounded=0;orthogonalLoop=1;jettySize=auto;html=1;exitX=0;exitY=0.5;exitDx=0;exitDy=0;entryX=1;entryY=0.4;entryDx=0;entryDy=0;entryPerimeter=0;" parent="1" source="2MBzyR10_KUpDIZZmnl0-27" target="2MBzyR10_KUpDIZZmnl0-28" edge="1">
          <mxGeometry relative="1" as="geometry" />
        </mxCell>
        <mxCell id="2MBzyR10_KUpDIZZmnl0-33" value="Nom_Tamano" style="ellipse;whiteSpace=wrap;html=1;" parent="1" vertex="1">
          <mxGeometry x="-440" y="280" width="120" height="50" as="geometry" />
        </mxCell>
        <mxCell id="2MBzyR10_KUpDIZZmnl0-34" value="Tipo_&lt;span style=&quot;background-color: initial;&quot;&gt;Categoria&lt;/span&gt;" style="ellipse;whiteSpace=wrap;html=1;" parent="1" vertex="1">
          <mxGeometry x="-570" y="270" width="120" height="50" as="geometry" />
        </mxCell>
        <mxCell id="2MBzyR10_KUpDIZZmnl0-36" style="edgeStyle=orthogonalEdgeStyle;rounded=0;orthogonalLoop=1;jettySize=auto;html=1;exitX=0.75;exitY=1;exitDx=0;exitDy=0;entryX=0.431;entryY=-0.009;entryDx=0;entryDy=0;entryPerimeter=0;" parent="1" source="SFxOARt2_e4KMZJVJRQL-3" target="2MBzyR10_KUpDIZZmnl0-33" edge="1">
          <mxGeometry relative="1" as="geometry" />
        </mxCell>
        <mxCell id="86mHC5baKhJhIRdEhU6H-4" style="edgeStyle=orthogonalEdgeStyle;rounded=0;orthogonalLoop=1;jettySize=auto;html=1;exitX=0;exitY=0;exitDx=0;exitDy=0;" edge="1" parent="1" source="86mHC5baKhJhIRdEhU6H-1" target="86mHC5baKhJhIRdEhU6H-2">
          <mxGeometry relative="1" as="geometry" />
        </mxCell>
        <mxCell id="86mHC5baKhJhIRdEhU6H-5" style="edgeStyle=orthogonalEdgeStyle;rounded=0;orthogonalLoop=1;jettySize=auto;html=1;exitX=0;exitY=0.5;exitDx=0;exitDy=0;" edge="1" parent="1" source="86mHC5baKhJhIRdEhU6H-1" target="86mHC5baKhJhIRdEhU6H-3">
          <mxGeometry relative="1" as="geometry" />
        </mxCell>
        <mxCell id="86mHC5baKhJhIRdEhU6H-1" value="Ubicacion" style="rounded=0;whiteSpace=wrap;html=1;" vertex="1" parent="1">
          <mxGeometry x="-790" y="430" width="120" height="60" as="geometry" />
        </mxCell>
        <mxCell id="86mHC5baKhJhIRdEhU6H-2" value="Id_Ubicacion" style="ellipse;whiteSpace=wrap;html=1;" vertex="1" parent="1">
          <mxGeometry x="-950" y="380" width="120" height="50" as="geometry" />
        </mxCell>
        <mxCell id="86mHC5baKhJhIRdEhU6H-3" value="Nom_ubicacion" style="ellipse;whiteSpace=wrap;html=1;" vertex="1" parent="1">
          <mxGeometry x="-950" y="450" width="110" height="50" as="geometry" />
        </mxCell>
        <mxCell id="86mHC5baKhJhIRdEhU6H-6" value="Orden_Venta" style="rounded=0;whiteSpace=wrap;html=1;" vertex="1" parent="1">
          <mxGeometry x="-200" y="520" width="120" height="60" as="geometry" />
        </mxCell>
        <mxCell id="86mHC5baKhJhIRdEhU6H-11" style="edgeStyle=orthogonalEdgeStyle;rounded=0;orthogonalLoop=1;jettySize=auto;html=1;exitX=0;exitY=0.25;exitDx=0;exitDy=0;entryX=1;entryY=0.5;entryDx=0;entryDy=0;" edge="1" parent="1" source="86mHC5baKhJhIRdEhU6H-7" target="86mHC5baKhJhIRdEhU6H-8">
          <mxGeometry relative="1" as="geometry" />
        </mxCell>
        <mxCell id="86mHC5baKhJhIRdEhU6H-7" value="Estado" style="rounded=0;whiteSpace=wrap;html=1;" vertex="1" parent="1">
          <mxGeometry x="595" y="400" width="120" height="60" as="geometry" />
        </mxCell>
        <mxCell id="86mHC5baKhJhIRdEhU6H-8" value="Id_Estado" style="ellipse;whiteSpace=wrap;html=1;" vertex="1" parent="1">
          <mxGeometry x="425" y="380" width="120" height="40" as="geometry" />
        </mxCell>
        <mxCell id="86mHC5baKhJhIRdEhU6H-9" value="Nom_Estado" style="ellipse;whiteSpace=wrap;html=1;" vertex="1" parent="1">
          <mxGeometry x="435" y="450" width="110" height="50" as="geometry" />
        </mxCell>
        <mxCell id="86mHC5baKhJhIRdEhU6H-12" style="edgeStyle=orthogonalEdgeStyle;rounded=0;orthogonalLoop=1;jettySize=auto;html=1;exitX=0;exitY=0.75;exitDx=0;exitDy=0;entryX=1;entryY=0.3;entryDx=0;entryDy=0;entryPerimeter=0;" edge="1" parent="1" source="86mHC5baKhJhIRdEhU6H-7" target="86mHC5baKhJhIRdEhU6H-9">
          <mxGeometry relative="1" as="geometry" />
        </mxCell>
        <mxCell id="86mHC5baKhJhIRdEhU6H-40" style="edgeStyle=orthogonalEdgeStyle;rounded=0;orthogonalLoop=1;jettySize=auto;html=1;exitX=1;exitY=0.25;exitDx=0;exitDy=0;entryX=0;entryY=0.5;entryDx=0;entryDy=0;" edge="1" parent="1" source="86mHC5baKhJhIRdEhU6H-13" target="86mHC5baKhJhIRdEhU6H-36">
          <mxGeometry relative="1" as="geometry" />
        </mxCell>
        <mxCell id="86mHC5baKhJhIRdEhU6H-41" style="edgeStyle=orthogonalEdgeStyle;rounded=0;orthogonalLoop=1;jettySize=auto;html=1;exitX=1;exitY=0.75;exitDx=0;exitDy=0;entryX=0;entryY=0.5;entryDx=0;entryDy=0;" edge="1" parent="1" source="86mHC5baKhJhIRdEhU6H-13" target="86mHC5baKhJhIRdEhU6H-37">
          <mxGeometry relative="1" as="geometry" />
        </mxCell>
        <mxCell id="86mHC5baKhJhIRdEhU6H-13" value="Pais" style="rounded=0;whiteSpace=wrap;html=1;" vertex="1" parent="1">
          <mxGeometry x="890" y="310" width="120" height="40" as="geometry" />
        </mxCell>
        <mxCell id="86mHC5baKhJhIRdEhU6H-14" value="Id_Direccion" style="ellipse;whiteSpace=wrap;html=1;" vertex="1" parent="1">
          <mxGeometry x="270" y="175" width="120" height="40" as="geometry" />
        </mxCell>
        <mxCell id="86mHC5baKhJhIRdEhU6H-15" value="Id_&lt;span style=&quot;background-color: initial;&quot;&gt;Pais&lt;/span&gt;" style="ellipse;whiteSpace=wrap;html=1;" vertex="1" parent="1">
          <mxGeometry x="660" y="30" width="122.5" height="30" as="geometry" />
        </mxCell>
        <mxCell id="86mHC5baKhJhIRdEhU6H-16" value="Id_Estado" style="ellipse;whiteSpace=wrap;html=1;" vertex="1" parent="1">
          <mxGeometry x="540" y="25" width="115" height="40" as="geometry" />
        </mxCell>
        <mxCell id="86mHC5baKhJhIRdEhU6H-29" style="edgeStyle=orthogonalEdgeStyle;rounded=0;orthogonalLoop=1;jettySize=auto;html=1;exitX=0.5;exitY=0;exitDx=0;exitDy=0;" edge="1" parent="1" source="86mHC5baKhJhIRdEhU6H-17">
          <mxGeometry relative="1" as="geometry">
            <mxPoint x="590" y="70" as="targetPoint" />
          </mxGeometry>
        </mxCell>
        <mxCell id="86mHC5baKhJhIRdEhU6H-32" style="edgeStyle=orthogonalEdgeStyle;rounded=0;orthogonalLoop=1;jettySize=auto;html=1;exitX=0;exitY=0.75;exitDx=0;exitDy=0;entryX=0.5;entryY=0;entryDx=0;entryDy=0;" edge="1" parent="1" source="86mHC5baKhJhIRdEhU6H-17" target="86mHC5baKhJhIRdEhU6H-31">
          <mxGeometry relative="1" as="geometry" />
        </mxCell>
        <mxCell id="86mHC5baKhJhIRdEhU6H-34" style="edgeStyle=orthogonalEdgeStyle;rounded=0;orthogonalLoop=1;jettySize=auto;html=1;exitX=1;exitY=0.25;exitDx=0;exitDy=0;entryX=0;entryY=0.5;entryDx=0;entryDy=0;" edge="1" parent="1" source="86mHC5baKhJhIRdEhU6H-17" target="86mHC5baKhJhIRdEhU6H-21">
          <mxGeometry relative="1" as="geometry" />
        </mxCell>
        <mxCell id="86mHC5baKhJhIRdEhU6H-35" style="edgeStyle=orthogonalEdgeStyle;rounded=0;orthogonalLoop=1;jettySize=auto;html=1;exitX=1;exitY=0.5;exitDx=0;exitDy=0;entryX=0;entryY=0;entryDx=0;entryDy=0;" edge="1" parent="1" target="86mHC5baKhJhIRdEhU6H-20">
          <mxGeometry relative="1" as="geometry">
            <mxPoint x="650" y="157.81" as="sourcePoint" />
            <mxPoint x="728.0283691292489" y="232.18173011374967" as="targetPoint" />
          </mxGeometry>
        </mxCell>
        <mxCell id="86mHC5baKhJhIRdEhU6H-17" value="Direccion" style="rounded=0;whiteSpace=wrap;html=1;" vertex="1" parent="1">
          <mxGeometry x="530" y="115" width="120" height="60" as="geometry" />
        </mxCell>
        <mxCell id="86mHC5baKhJhIRdEhU6H-20" value="Calle_Direccion" style="ellipse;whiteSpace=wrap;html=1;" vertex="1" parent="1">
          <mxGeometry x="710" y="215" width="122.5" height="30" as="geometry" />
        </mxCell>
        <mxCell id="86mHC5baKhJhIRdEhU6H-21" value="Colonia_Direccion" style="ellipse;whiteSpace=wrap;html=1;" vertex="1" parent="1">
          <mxGeometry x="730" y="110" width="122.5" height="30" as="geometry" />
        </mxCell>
        <mxCell id="86mHC5baKhJhIRdEhU6H-18" value="Id_Direccion" style="ellipse;whiteSpace=wrap;html=1;" vertex="1" parent="1">
          <mxGeometry x="410" y="25" width="120" height="50" as="geometry" />
        </mxCell>
        <mxCell id="86mHC5baKhJhIRdEhU6H-28" style="edgeStyle=orthogonalEdgeStyle;rounded=0;orthogonalLoop=1;jettySize=auto;html=1;exitX=0;exitY=0;exitDx=0;exitDy=0;entryX=0.417;entryY=1.1;entryDx=0;entryDy=0;entryPerimeter=0;" edge="1" parent="1" source="86mHC5baKhJhIRdEhU6H-17" target="86mHC5baKhJhIRdEhU6H-18">
          <mxGeometry relative="1" as="geometry" />
        </mxCell>
        <mxCell id="86mHC5baKhJhIRdEhU6H-30" style="edgeStyle=orthogonalEdgeStyle;rounded=0;orthogonalLoop=1;jettySize=auto;html=1;exitX=0.75;exitY=0;exitDx=0;exitDy=0;entryX=0.571;entryY=1;entryDx=0;entryDy=0;entryPerimeter=0;" edge="1" parent="1" source="86mHC5baKhJhIRdEhU6H-17" target="86mHC5baKhJhIRdEhU6H-15">
          <mxGeometry relative="1" as="geometry" />
        </mxCell>
        <mxCell id="86mHC5baKhJhIRdEhU6H-31" value="CP_Direccion" style="ellipse;whiteSpace=wrap;html=1;" vertex="1" parent="1">
          <mxGeometry x="417.5" y="215" width="122.5" height="30" as="geometry" />
        </mxCell>
        <mxCell id="86mHC5baKhJhIRdEhU6H-36" value="Id_&lt;span style=&quot;background-color: initial;&quot;&gt;Pais&lt;/span&gt;" style="ellipse;whiteSpace=wrap;html=1;" vertex="1" parent="1">
          <mxGeometry x="1060" y="290" width="122.5" height="30" as="geometry" />
        </mxCell>
        <mxCell id="86mHC5baKhJhIRdEhU6H-37" value="Nombre&lt;span style=&quot;background-color: initial;&quot;&gt;_&lt;/span&gt;&lt;span style=&quot;background-color: initial;&quot;&gt;Pais&lt;/span&gt;" style="ellipse;whiteSpace=wrap;html=1;" vertex="1" parent="1">
          <mxGeometry x="1070" y="340" width="122.5" height="30" as="geometry" />
        </mxCell>
      </root>
    </mxGraphModel>
  </diagram>
</mxfile>
